<svg xmlns="http://www.w3.org/2000/svg" xmlns:xlink="http://www.w3.org/1999/xlink" width="1200" zoomAndPan="magnify" viewBox="0 0 900 187.499995" height="250" preserveAspectRatio="xMidYMid meet" version="1.0"><defs><g/></defs><path fill="#000000" d="M 570.824219 35.785156 L 837.75 35.785156 L 837.75 147.03125 L 570.824219 147.03125 L 570.824219 35.785156 " fill-opacity="1" fill-rule="nonzero"/><g fill="#f9f6f2" fill-opacity="1"><g transform="translate(605.783387, 112.334514)"><g><path d="M 28.765625 0.828125 C 23.859375 0.828125 19.421875 -0.238281 15.453125 -2.375 C 11.484375 -4.507812 8.363281 -7.46875 6.09375 -11.25 C 3.820312 -15.03125 2.6875 -19.304688 2.6875 -24.078125 C 2.6875 -28.847656 3.820312 -33.125 6.09375 -36.90625 C 8.363281 -40.695312 11.484375 -43.660156 15.453125 -45.796875 C 19.421875 -47.929688 23.878906 -49 28.828125 -49 C 33.003906 -49 36.773438 -48.265625 40.140625 -46.796875 C 43.515625 -45.328125 46.351562 -43.21875 48.65625 -40.46875 L 41.5 -33.859375 C 38.238281 -37.617188 34.203125 -39.5 29.390625 -39.5 C 26.398438 -39.5 23.734375 -38.84375 21.390625 -37.53125 C 19.054688 -36.226562 17.234375 -34.40625 15.921875 -32.0625 C 14.617188 -29.726562 13.96875 -27.066406 13.96875 -24.078125 C 13.96875 -21.097656 14.617188 -18.4375 15.921875 -16.09375 C 17.234375 -13.757812 19.054688 -11.9375 21.390625 -10.625 C 23.734375 -9.320312 26.398438 -8.671875 29.390625 -8.671875 C 34.203125 -8.671875 38.238281 -10.570312 41.5 -14.375 L 48.65625 -7.78125 C 46.351562 -4.976562 43.503906 -2.84375 40.109375 -1.375 C 36.722656 0.09375 32.941406 0.828125 28.765625 0.828125 Z M 28.765625 0.828125 "/></g></g></g><g fill="#f9f6f2" fill-opacity="1"><g transform="translate(671.081884, 112.334514)"><g><path d="M 36.40625 0 L 27.109375 -13.421875 L 16.859375 -13.421875 L 16.859375 0 L 5.71875 0 L 5.71875 -48.171875 L 26.5625 -48.171875 C 30.832031 -48.171875 34.535156 -47.457031 37.671875 -46.03125 C 40.816406 -44.613281 43.238281 -42.597656 44.9375 -39.984375 C 46.632812 -37.367188 47.484375 -34.269531 47.484375 -30.6875 C 47.484375 -27.113281 46.617188 -24.03125 44.890625 -21.4375 C 43.171875 -18.84375 40.734375 -16.859375 37.578125 -15.484375 L 48.375 0 Z M 36.203125 -30.6875 C 36.203125 -33.394531 35.328125 -35.46875 33.578125 -36.90625 C 31.835938 -38.351562 29.289062 -39.078125 25.9375 -39.078125 L 16.859375 -39.078125 L 16.859375 -22.296875 L 25.9375 -22.296875 C 29.289062 -22.296875 31.835938 -23.03125 33.578125 -24.5 C 35.328125 -25.96875 36.203125 -28.03125 36.203125 -30.6875 Z M 36.203125 -30.6875 "/></g></g></g><g fill="#f9f6f2" fill-opacity="1"><g transform="translate(736.518005, 112.334514)"><g><path d="M 49.546875 0 L 49.46875 -28.90625 L 35.296875 -5.09375 L 30.28125 -5.09375 L 16.171875 -28.28125 L 16.171875 0 L 5.71875 0 L 5.71875 -48.171875 L 14.9375 -48.171875 L 32.96875 -18.234375 L 50.71875 -48.171875 L 59.859375 -48.171875 L 60 0 Z M 49.546875 0 "/></g></g></g><g fill="#000000" fill-opacity="1"><g transform="translate(53.883519, 123.944036)"><g><path d="M 31.359375 -55.625 C 35.453125 -55.625 39.484375 -54.785156 43.453125 -53.109375 C 47.421875 -51.429688 50.796875 -49.171875 53.578125 -46.328125 L 45.46875 -36.71875 C 43.675781 -38.925781 41.53125 -40.671875 39.03125 -41.953125 C 36.539062 -43.242188 34.0625 -43.890625 31.59375 -43.890625 C 27.238281 -43.890625 23.585938 -42.351562 20.640625 -39.28125 C 17.703125 -36.207031 16.234375 -32.410156 16.234375 -27.890625 C 16.234375 -23.265625 17.703125 -19.398438 20.640625 -16.296875 C 23.585938 -13.203125 27.238281 -11.65625 31.59375 -11.65625 C 33.90625 -11.65625 36.304688 -12.234375 38.796875 -13.390625 C 41.296875 -14.546875 43.519531 -16.125 45.46875 -18.125 L 53.65625 -9.453125 C 50.664062 -6.410156 47.132812 -3.96875 43.0625 -2.125 C 38.988281 -0.289062 34.929688 0.625 30.890625 0.625 C 22.585938 0.625 15.675781 -2.078125 10.15625 -7.484375 C 4.644531 -12.898438 1.890625 -19.648438 1.890625 -27.734375 C 1.890625 -35.671875 4.695312 -42.300781 10.3125 -47.625 C 15.9375 -52.957031 22.953125 -55.625 31.359375 -55.625 Z M 31.359375 -55.625 "/></g></g></g><g fill="#000000" fill-opacity="1"><g transform="translate(125.430604, 123.944036)"><g><path d="M 31.671875 -55.625 C 40.234375 -55.625 47.351562 -52.957031 53.03125 -47.625 C 58.707031 -42.300781 61.546875 -35.644531 61.546875 -27.65625 C 61.546875 -19.625 58.691406 -12.898438 52.984375 -7.484375 C 47.285156 -2.078125 40.179688 0.625 31.671875 0.625 C 23.160156 0.625 16.066406 -2.0625 10.390625 -7.4375 C 4.722656 -12.820312 1.890625 -19.5625 1.890625 -27.65625 C 1.890625 -35.695312 4.722656 -42.367188 10.390625 -47.671875 C 16.066406 -52.972656 23.160156 -55.625 31.671875 -55.625 Z M 31.828125 -43.890625 C 27.523438 -43.890625 23.847656 -42.328125 20.796875 -39.203125 C 17.753906 -36.078125 16.234375 -32.203125 16.234375 -27.578125 C 16.234375 -22.953125 17.769531 -19.050781 20.84375 -15.875 C 23.914062 -12.695312 27.578125 -11.109375 31.828125 -11.109375 C 36.085938 -11.109375 39.703125 -12.695312 42.671875 -15.875 C 45.640625 -19.050781 47.125 -22.953125 47.125 -27.578125 C 47.125 -32.203125 45.640625 -36.078125 42.671875 -39.203125 C 39.703125 -42.328125 36.085938 -43.890625 31.828125 -43.890625 Z M 31.828125 -43.890625 "/></g></g></g><g fill="#000000" fill-opacity="1"><g transform="translate(205.880938, 123.944036)"><g><path d="M 56.421875 0 L 44.046875 0 L 18.671875 -33.96875 L 18.671875 0 L 5.515625 0 L 5.515625 -55.15625 L 17.890625 -55.15625 L 43.34375 -21.125 L 43.34375 -55.15625 L 56.421875 -55.15625 Z M 56.421875 0 "/></g></g></g><g fill="#000000" fill-opacity="1"><g transform="translate(284.834262, 123.944036)"><g><path d="M 56.421875 0 L 44.046875 0 L 18.671875 -33.96875 L 18.671875 0 L 5.515625 0 L 5.515625 -55.15625 L 17.890625 -55.15625 L 43.34375 -21.125 L 43.34375 -55.15625 L 56.421875 -55.15625 Z M 56.421875 0 "/></g></g></g><g fill="#000000" fill-opacity="1"><g transform="translate(363.787587, 123.944036)"><g><path d="M 48.703125 -44.125 L 19.546875 -44.125 L 19.546875 -33.171875 L 45.859375 -33.171875 L 45.859375 -22.140625 L 19.546875 -22.140625 L 19.546875 -11.03125 L 49.5625 -11.03125 L 49.5625 0 L 5.515625 0 L 5.515625 -55.15625 L 48.703125 -55.15625 Z M 48.703125 -44.125 "/></g></g></g><g fill="#000000" fill-opacity="1"><g transform="translate(433.916445, 123.944036)"><g><path d="M 31.359375 -55.625 C 35.453125 -55.625 39.484375 -54.785156 43.453125 -53.109375 C 47.421875 -51.429688 50.796875 -49.171875 53.578125 -46.328125 L 45.46875 -36.71875 C 43.675781 -38.925781 41.53125 -40.671875 39.03125 -41.953125 C 36.539062 -43.242188 34.0625 -43.890625 31.59375 -43.890625 C 27.238281 -43.890625 23.585938 -42.351562 20.640625 -39.28125 C 17.703125 -36.207031 16.234375 -32.410156 16.234375 -27.890625 C 16.234375 -23.265625 17.703125 -19.398438 20.640625 -16.296875 C 23.585938 -13.203125 27.238281 -11.65625 31.59375 -11.65625 C 33.90625 -11.65625 36.304688 -12.234375 38.796875 -13.390625 C 41.296875 -14.546875 43.519531 -16.125 45.46875 -18.125 L 53.65625 -9.453125 C 50.664062 -6.410156 47.132812 -3.96875 43.0625 -2.125 C 38.988281 -0.289062 34.929688 0.625 30.890625 0.625 C 22.585938 0.625 15.675781 -2.078125 10.15625 -7.484375 C 4.644531 -12.898438 1.890625 -19.648438 1.890625 -27.734375 C 1.890625 -35.671875 4.695312 -42.300781 10.3125 -47.625 C 15.9375 -52.957031 22.953125 -55.625 31.359375 -55.625 Z M 31.359375 -55.625 "/></g></g></g><g fill="#000000" fill-opacity="1"><g transform="translate(505.463552, 123.944036)"><g><path d="M 47.671875 -43.890625 L 31.046875 -43.890625 L 31.046875 0 L 17.015625 0 L 17.015625 -43.890625 L 0.546875 -43.890625 L 0.546875 -55.234375 L 47.671875 -55.234375 Z M 47.671875 -43.890625 "/></g></g></g></svg>